 http://www.imdb.com/title/tt0086979/

Source: Blood.Simple.1984.720p.BluRay.x264.DTS-WiKi Thanks!

Subs: Arabic, Brazilian, Bulgarian, Croatian, Dutch, English, Farsi-Persian, French, Greek, Hebrew, Polish, Portuguese, Spanish, Turkish and Vietnamese.

Sample and Screens included.

General
Complete name                            : Blood Simple-720p MP4 AAC x264 BRRip 1984-CC.mp4
Format                                   : MPEG-4
Format profile                           : Base Media
Codec ID                                 : isom
File size                                : 2.10 GiB
Duration                                 : 1h 35mn
Overall bit rate mode                    : Variable
Overall bit rate                         : 3 137 Kbps
Encoded date                             : UTC 2012-09-14 09:15:12

Video
ID                                       : 1
Format                                   : AVC
Format/Info                              : Advanced Video Codec
Format profile                           : High@L3.1
Format settings, CABAC                   : Yes
Format settings, ReFrames                : 5 frames
Codec ID                                 : avc1
Codec ID/Info                            : Advanced Video Coding
Duration                                 : 1h 35mn
Bit rate                                 : 2 863 Kbps
Maximum bit rate                         : 15.5 Mbps
Width                                    : 1 280 pixels
Height                                   : 688 pixels
Display aspect ratio                     : 1.85:1
Frame rate mode                          : Variable
Frame rate                               : 23.976 fps
Minimum frame rate                       : 23.810 fps
Maximum frame rate                       : 24.390 fps
Color space                              : YUV
Chroma subsampling                       : 4:2:0
Bit depth                                : 8 bits
Scan type                                : Progressive
Bits/(Pixel*Frame)                       : 0.136
Stream size                              : 1.88 GiB (90%)
Writing library                          : x264 core 112

Audio
ID                                       : 2
Format                                   : AAC
Format/Info                              : Advanced Audio Codec
Format profile                           : LC
Codec ID                                 : 40
Duration                                 : 1h 35mn
Bit rate mode                            : Variable
Bit rate                                 : 311 Kbps
Maximum bit rate                         : 386 Kbps
Channel(s)                               : 2 channels
Channel positions                        : Front: L R
Sampling rate                            : 48.0 KHz
Compression mode                         : Lossy
Delay relative to video                  : 83ms
Stream size                              : 212 MiB (10%)
Language                                 : English


Enjoy...

Requested by DreamExtractor.

Coming up soon: Cradle 2 The Grave, Days of Heaven, Batman Begins and more...